<?xml version="1.0" encoding="UTF-8" standalone="no"?>
<!DOCTYPE svg PUBLIC "-//W3C//DTD SVG 1.1//EN"
 "http://www.w3.org/Graphics/SVG/1.1/DTD/svg11.dtd">
<!-- Generated by graphviz version 2.43.0 (0)
 -->
<!-- Title: G Pages: 1 -->
<svg width="2172pt" height="564pt"
 viewBox="0.00 0.00 2172.00 564.00" xmlns="http://www.w3.org/2000/svg" xmlns:xlink="http://www.w3.org/1999/xlink">
<g id="graph0" class="graph" transform="scale(1 1) rotate(0) translate(4 560)">
<title>G</title>
<polygon fill="white" stroke="transparent" points="-4,4 -4,-560 2168,-560 2168,4 -4,4"/>
<g id="clust1" class="cluster">
<title>cluster_module.compute</title>
<polygon fill="none" stroke="black" points="1031,-91 1031,-274 1853,-274 1853,-91 1031,-91"/>
<text text-anchor="middle" x="1442" y="-258.8" font-family="sans-serif" font-size="14.00">module.compute</text>
</g>
<g id="clust2" class="cluster">
<title>cluster_module.loadbalancer</title>
<polygon fill="none" stroke="black" points="694.5,-282 694.5,-411 2156,-411 2156,-282 694.5,-282"/>
<text text-anchor="middle" x="1425.25" y="-395.8" font-family="sans-serif" font-size="14.00">module.loadbalancer</text>
</g>
<g id="clust3" class="cluster">
<title>cluster_module.network</title>
<polygon fill="none" stroke="black" points="8,-419 8,-548 1011,-548 1011,-419 8,-419"/>
<text text-anchor="middle" x="509.5" y="-532.8" font-family="sans-serif" font-size="14.00">module.network</text>
</g>
<g id="clust4" class="cluster">
<title>cluster_module.security</title>
<polygon fill="none" stroke="black" points="674.5,-8 674.5,-83 1393.5,-83 1393.5,-8 674.5,-8"/>
<text text-anchor="middle" x="1034" y="-67.8" font-family="sans-serif" font-size="14.00">module.security</text>
</g>
<!-- module.compute.openstack_blockstorage_volume_v3.root_volumes -->
<g id="node1" class="node">
<title>module.compute.openstack_blockstorage_volume_v3.root_volumes</title>
<polygon fill="none" stroke="black" points="1401,-243 1039,-243 1039,-207 1401,-207 1401,-243"/>
<text text-anchor="middle" x="1220" y="-221.3" font-family="sans-serif" font-size="14.00">openstack_blockstorage_volume_v3.root_volumes</text>
</g>
<!-- module.compute.openstack_compute_instance_v2.instances -->
<g id="node2" class="node">
<title>module.compute.openstack_compute_instance_v2.instances</title>
<polygon fill="none" stroke="black" points="1798.5,-243 1483.5,-243 1483.5,-207 1798.5,-207 1798.5,-243"/>
<text text-anchor="middle" x="1641" y="-221.3" font-family="sans-serif" font-size="14.00">openstack_compute_instance_v2.instances</text>
</g>
<!-- module.compute.openstack_compute_instance_v2.instances&#45;&gt;module.compute.openstack_blockstorage_volume_v3.root_volumes -->
<g id="edge1" class="edge">
<title>module.compute.openstack_compute_instance_v2.instances&#45;&gt;module.compute.openstack_blockstorage_volume_v3.root_volumes</title>
<path fill="none" stroke="black" d="M1483.38,-225C1459.89,-225 1435.45,-225 1411.35,-225"/>
<polygon fill="black" stroke="black" points="1411.05,-221.5 1401.05,-225 1411.05,-228.5 1411.05,-221.5"/>
</g>
<!-- module.compute.openstack_networking_port_v2.ports -->
<g id="node5" class="node">
<title>module.compute.openstack_networking_port_v2.ports</title>
<polygon fill="none" stroke="black" points="1356,-189 1084,-189 1084,-153 1356,-153 1356,-189"/>
<text text-anchor="middle" x="1220" y="-167.3" font-family="sans-serif" font-size="14.00">openstack_networking_port_v2.ports</text>
</g>
<!-- module.compute.openstack_compute_instance_v2.instances&#45;&gt;module.compute.openstack_networking_port_v2.ports -->
<g id="edge2" class="edge">
<title>module.compute.openstack_compute_instance_v2.instances&#45;&gt;module.compute.openstack_networking_port_v2.ports</title>
<path fill="none" stroke="black" d="M1500.19,-206.98C1457.13,-201.43 1409.65,-195.31 1366.24,-189.72"/>
<polygon fill="black" stroke="black" points="1366.54,-186.23 1356.18,-188.42 1365.65,-193.17 1366.54,-186.23"/>
</g>
<!-- module.compute.openstack_networking_floatingip_associate_v2.fip_assoc -->
<g id="node3" class="node">
<title>module.compute.openstack_networking_floatingip_associate_v2.fip_assoc</title>
<polygon fill="none" stroke="black" points="1845,-162 1437,-162 1437,-126 1845,-126 1845,-162"/>
<text text-anchor="middle" x="1641" y="-140.3" font-family="sans-serif" font-size="14.00">openstack_networking_floatingip_associate_v2.fip_assoc</text>
</g>
<!-- module.compute.openstack_networking_floatingip_v2.fips -->
<g id="node4" class="node">
<title>module.compute.openstack_networking_floatingip_v2.fips</title>
<polygon fill="none" stroke="black" points="1369.5,-135 1070.5,-135 1070.5,-99 1369.5,-99 1369.5,-135"/>
<text text-anchor="middle" x="1220" y="-113.3" font-family="sans-serif" font-size="14.00">openstack_networking_floatingip_v2.fips</text>
</g>
<!-- module.compute.openstack_networking_floatingip_associate_v2.fip_assoc&#45;&gt;module.compute.openstack_networking_floatingip_v2.fips -->
<g id="edge3" class="edge">
<title>module.compute.openstack_networking_floatingip_associate_v2.fip_assoc&#45;&gt;module.compute.openstack_networking_floatingip_v2.fips</title>
<path fill="none" stroke="black" d="M1436.94,-130.92C1417.75,-129.68 1398.48,-128.44 1379.79,-127.23"/>
<polygon fill="black" stroke="black" points="1379.98,-123.74 1369.77,-126.59 1379.52,-130.72 1379.98,-123.74"/>
</g>
<!-- module.compute.openstack_networking_floatingip_associate_v2.fip_assoc&#45;&gt;module.compute.openstack_networking_port_v2.ports -->
<g id="edge4" class="edge">
<title>module.compute.openstack_networking_floatingip_associate_v2.fip_assoc&#45;&gt;module.compute.openstack_networking_port_v2.ports</title>
<path fill="none" stroke="black" d="M1436.94,-157.08C1413.04,-158.63 1389.02,-160.17 1366.14,-161.65"/>
<polygon fill="black" stroke="black" points="1365.81,-158.16 1356.06,-162.3 1366.26,-165.15 1365.81,-158.16"/>
</g>
<!-- module.network.openstack_networking_network_v2.this -->
<g id="node11" class="node">
<title>module.network.openstack_networking_network_v2.this</title>
<polygon fill="none" stroke="black" points="306,-463 16,-463 16,-427 306,-427 306,-463"/>
<text text-anchor="middle" x="161" y="-441.3" font-family="sans-serif" font-size="14.00">openstack_networking_network_v2.this</text>
</g>
<!-- module.compute.openstack_networking_port_v2.ports&#45;&gt;module.network.openstack_networking_network_v2.this -->
<g id="edge5" class="edge">
<title>module.compute.openstack_networking_port_v2.ports&#45;&gt;module.network.openstack_networking_network_v2.this</title>
<path fill="none" stroke="black" d="M1085.56,-189C1067.2,-191.82 1048.61,-194.85 1031,-198 864.54,-227.82 822.08,-233.22 659,-278 497.29,-322.41 310.93,-389.39 219.16,-423.45"/>
<polygon fill="black" stroke="black" points="217.92,-420.18 209.77,-426.94 220.36,-426.74 217.92,-420.18"/>
</g>
<!-- module.security.openstack_networking_secgroup_v2.this -->
<g id="node16" class="node">
<title>module.security.openstack_networking_secgroup_v2.this</title>
<polygon fill="none" stroke="black" points="979.5,-52 682.5,-52 682.5,-16 979.5,-16 979.5,-52"/>
<text text-anchor="middle" x="831" y="-30.3" font-family="sans-serif" font-size="14.00">openstack_networking_secgroup_v2.this</text>
</g>
<!-- module.compute.openstack_networking_port_v2.ports&#45;&gt;module.security.openstack_networking_secgroup_v2.this -->
<g id="edge6" class="edge">
<title>module.compute.openstack_networking_port_v2.ports&#45;&gt;module.security.openstack_networking_secgroup_v2.this</title>
<path fill="none" stroke="black" d="M1083.85,-157.63C1065.84,-154.1 1047.8,-149.64 1031,-144 969.33,-123.3 904.6,-83.67 866.3,-58.06"/>
<polygon fill="black" stroke="black" points="867.86,-54.89 857.61,-52.19 863.94,-60.69 867.86,-54.89"/>
</g>
<!-- module.loadbalancer.openstack_lb_listener_v2.this -->
<g id="node6" class="node">
<title>module.loadbalancer.openstack_lb_listener_v2.this</title>
<polygon fill="none" stroke="black" points="1330,-380 1110,-380 1110,-344 1330,-344 1330,-380"/>
<text text-anchor="middle" x="1220" y="-358.3" font-family="sans-serif" font-size="14.00">openstack_lb_listener_v2.this</text>
</g>
<!-- module.loadbalancer.openstack_lb_loadbalancer_v2.this -->
<g id="node7" class="node">
<title>module.loadbalancer.openstack_lb_loadbalancer_v2.this</title>
<polygon fill="none" stroke="black" points="959.5,-380 702.5,-380 702.5,-344 959.5,-344 959.5,-380"/>
<text text-anchor="middle" x="831" y="-358.3" font-family="sans-serif" font-size="14.00">openstack_lb_loadbalancer_v2.this</text>
</g>
<!-- module.loadbalancer.openstack_lb_listener_v2.this&#45;&gt;module.loadbalancer.openstack_lb_loadbalancer_v2.this -->
<g id="edge7" class="edge">
<title>module.loadbalancer.openstack_lb_listener_v2.this&#45;&gt;module.loadbalancer.openstack_lb_loadbalancer_v2.this</title>
<path fill="none" stroke="black" d="M1109.91,-362C1066.38,-362 1015.77,-362 969.76,-362"/>
<polygon fill="black" stroke="black" points="969.71,-358.5 959.71,-362 969.71,-365.5 969.71,-358.5"/>
</g>
<!-- module.network.openstack_networking_subnet_v2.this -->
<g id="node14" class="node">
<title>module.network.openstack_networking_subnet_v2.this</title>
<polygon fill="none" stroke="black" points="623,-463 342,-463 342,-427 623,-427 623,-463"/>
<text text-anchor="middle" x="482.5" y="-441.3" font-family="sans-serif" font-size="14.00">openstack_networking_subnet_v2.this</text>
</g>
<!-- module.loadbalancer.openstack_lb_loadbalancer_v2.this&#45;&gt;module.network.openstack_networking_subnet_v2.this -->
<g id="edge8" class="edge">
<title>module.loadbalancer.openstack_lb_loadbalancer_v2.this&#45;&gt;module.network.openstack_networking_subnet_v2.this</title>
<path fill="none" stroke="black" d="M754.81,-380.01C700.08,-393.12 625.88,-410.9 568.9,-424.54"/>
<polygon fill="black" stroke="black" points="567.75,-421.22 558.84,-426.95 569.38,-428.03 567.75,-421.22"/>
</g>
<!-- module.loadbalancer.openstack_lb_member_v2.members -->
<g id="node8" class="node">
<title>module.loadbalancer.openstack_lb_member_v2.members</title>
<polygon fill="none" stroke="black" points="2148,-326 1881,-326 1881,-290 2148,-290 2148,-326"/>
<text text-anchor="middle" x="2014.5" y="-304.3" font-family="sans-serif" font-size="14.00">openstack_lb_member_v2.members</text>
</g>
<!-- module.loadbalancer.openstack_lb_member_v2.members&#45;&gt;module.compute.openstack_compute_instance_v2.instances -->
<g id="edge9" class="edge">
<title>module.loadbalancer.openstack_lb_member_v2.members&#45;&gt;module.compute.openstack_compute_instance_v2.instances</title>
<path fill="none" stroke="black" d="M1932.89,-289.99C1873.96,-276.83 1793.99,-258.96 1732.81,-245.29"/>
<polygon fill="black" stroke="black" points="1733.3,-241.81 1722.77,-243.05 1731.77,-248.64 1733.3,-241.81"/>
</g>
<!-- module.loadbalancer.openstack_lb_pool_v2.this -->
<g id="node10" class="node">
<title>module.loadbalancer.openstack_lb_pool_v2.this</title>
<polygon fill="none" stroke="black" points="1739.5,-380 1542.5,-380 1542.5,-344 1739.5,-344 1739.5,-380"/>
<text text-anchor="middle" x="1641" y="-358.3" font-family="sans-serif" font-size="14.00">openstack_lb_pool_v2.this</text>
</g>
<!-- module.loadbalancer.openstack_lb_member_v2.members&#45;&gt;module.loadbalancer.openstack_lb_pool_v2.this -->
<g id="edge10" class="edge">
<title>module.loadbalancer.openstack_lb_member_v2.members&#45;&gt;module.loadbalancer.openstack_lb_pool_v2.this</title>
<path fill="none" stroke="black" d="M1889.54,-326.02C1844.32,-332.59 1793.59,-339.97 1749.88,-346.32"/>
<polygon fill="black" stroke="black" points="1749.19,-342.88 1739.8,-347.78 1750.2,-349.81 1749.19,-342.88"/>
</g>
<!-- module.loadbalancer.openstack_lb_monitor_v2.this -->
<g id="node9" class="node">
<title>module.loadbalancer.openstack_lb_monitor_v2.this</title>
<polygon fill="none" stroke="black" points="2125.5,-380 1903.5,-380 1903.5,-344 2125.5,-344 2125.5,-380"/>
<text text-anchor="middle" x="2014.5" y="-358.3" font-family="sans-serif" font-size="14.00">openstack_lb_monitor_v2.this</text>
</g>
<!-- module.loadbalancer.openstack_lb_monitor_v2.this&#45;&gt;module.loadbalancer.openstack_lb_pool_v2.this -->
<g id="edge11" class="edge">
<title>module.loadbalancer.openstack_lb_monitor_v2.this&#45;&gt;module.loadbalancer.openstack_lb_pool_v2.this</title>
<path fill="none" stroke="black" d="M1903.29,-362C1854.76,-362 1797.94,-362 1749.7,-362"/>
<polygon fill="black" stroke="black" points="1749.54,-358.5 1739.54,-362 1749.54,-365.5 1749.54,-358.5"/>
</g>
<!-- module.loadbalancer.openstack_lb_pool_v2.this&#45;&gt;module.loadbalancer.openstack_lb_listener_v2.this -->
<g id="edge12" class="edge">
<title>module.loadbalancer.openstack_lb_pool_v2.this&#45;&gt;module.loadbalancer.openstack_lb_listener_v2.this</title>
<path fill="none" stroke="black" d="M1542.29,-362C1482.04,-362 1404.34,-362 1340.44,-362"/>
<polygon fill="black" stroke="black" points="1340.31,-358.5 1330.31,-362 1340.31,-365.5 1340.31,-358.5"/>
</g>
<!-- module.network.openstack_networking_router_interface_v2.this -->
<g id="node12" class="node">
<title>module.network.openstack_networking_router_interface_v2.this</title>
<polygon fill="none" stroke="black" points="1003,-490 659,-490 659,-454 1003,-454 1003,-490"/>
<text text-anchor="middle" x="831" y="-468.3" font-family="sans-serif" font-size="14.00">openstack_networking_router_interface_v2.this</text>
</g>
<!-- module.network.openstack_networking_router_v2.this -->
<g id="node13" class="node">
<title>module.network.openstack_networking_router_v2.this</title>
<polygon fill="none" stroke="black" points="620,-517 345,-517 345,-481 620,-481 620,-517"/>
<text text-anchor="middle" x="482.5" y="-495.3" font-family="sans-serif" font-size="14.00">openstack_networking_router_v2.this</text>
</g>
<!-- module.network.openstack_networking_router_interface_v2.this&#45;&gt;module.network.openstack_networking_router_v2.this -->
<g id="edge13" class="edge">
<title>module.network.openstack_networking_router_interface_v2.this&#45;&gt;module.network.openstack_networking_router_v2.this</title>
<path fill="none" stroke="black" d="M658.78,-485.34C649.26,-486.08 639.74,-486.83 630.32,-487.56"/>
<polygon fill="black" stroke="black" points="629.85,-484.09 620.15,-488.35 630.39,-491.06 629.85,-484.09"/>
</g>
<!-- module.network.openstack_networking_router_interface_v2.this&#45;&gt;module.network.openstack_networking_subnet_v2.this -->
<g id="edge14" class="edge">
<title>module.network.openstack_networking_router_interface_v2.this&#45;&gt;module.network.openstack_networking_subnet_v2.this</title>
<path fill="none" stroke="black" d="M658.78,-458.66C650.3,-458 641.8,-457.34 633.39,-456.68"/>
<polygon fill="black" stroke="black" points="633.4,-453.17 623.16,-455.88 632.86,-460.15 633.4,-453.17"/>
</g>
<!-- module.network.openstack_networking_subnet_v2.this&#45;&gt;module.network.openstack_networking_network_v2.this -->
<g id="edge15" class="edge">
<title>module.network.openstack_networking_subnet_v2.this&#45;&gt;module.network.openstack_networking_network_v2.this</title>
<path fill="none" stroke="black" d="M341.83,-445C333.32,-445 324.73,-445 316.17,-445"/>
<polygon fill="black" stroke="black" points="316.13,-441.5 306.13,-445 316.13,-448.5 316.13,-441.5"/>
</g>
<!-- module.security.openstack_networking_secgroup_rule_v2.this -->
<g id="node15" class="node">
<title>module.security.openstack_networking_secgroup_rule_v2.this</title>
<polygon fill="none" stroke="black" points="1385.5,-52 1054.5,-52 1054.5,-16 1385.5,-16 1385.5,-52"/>
<text text-anchor="middle" x="1220" y="-30.3" font-family="sans-serif" font-size="14.00">openstack_networking_secgroup_rule_v2.this</text>
</g>
<!-- module.security.openstack_networking_secgroup_rule_v2.this&#45;&gt;module.security.openstack_networking_secgroup_v2.this -->
<g id="edge16" class="edge">
<title>module.security.openstack_networking_secgroup_rule_v2.this&#45;&gt;module.security.openstack_networking_secgroup_v2.this</title>
<path fill="none" stroke="black" d="M1054.32,-34C1032.92,-34 1011.03,-34 989.75,-34"/>
<polygon fill="black" stroke="black" points="989.69,-30.5 979.69,-34 989.69,-37.5 989.69,-30.5"/>
</g>
</g>
</svg>
